<svg xmlns="http://www.w3.org/2000/svg" viewBox="0 0 192 192" width="192" height="192">
  <defs>
    <linearGradient id="bg" x1="0%" y1="0%" x2="100%" y2="100%">
      <stop offset="0%" style="stop-color:#FAF9F6;stop-opacity:1" />
      <stop offset="100%" style="stop-color:#F1F3F4;stop-opacity:1" />
    </linearGradient>
    <linearGradient id="leaf" x1="0%" y1="0%" x2="100%" y2="100%">
      <stop offset="0%" style="stop-color:#2E7D32;stop-opacity:1" />
      <stop offset="100%" style="stop-color:#1B5E20;stop-opacity:1" />
    </linearGradient>
    <linearGradient id="accent" x1="0%" y1="100%" x2="100%" y2="0%">
      <stop offset="0%" style="stop-color:#FFC107;stop-opacity:1" />
      <stop offset="100%" style="stop-color:#FFD54F;stop-opacity:0.8" />
    </linearGradient>
  </defs>
  <!-- Background -->
  <rect width="192" height="192" rx="36" ry="36" fill="url(#bg)"/>
  <!-- Leaf shape -->
  <path d="M96 30 C130 30, 162 58, 162 96 C162 134, 130 162, 96 150 C96 150, 60 140, 50 110 C40 80, 62 30, 96 30 Z" fill="url(#leaf)"/>
  <!-- Stem -->
  <line x1="96" y1="150" x2="96" y2="170" stroke="#2E7D32" stroke-width="5" stroke-linecap="round"/>
  <!-- Circuit lines with amber accent -->
  <g stroke="url(#accent)" stroke-width="2.5" fill="none" opacity="0.9">
    <line x1="96" y1="60" x2="96" y2="130"/>
    <line x1="96" y1="80" x2="122" y2="80"/>
    <line x1="96" y1="100" x2="118" y2="100"/>
    <line x1="96" y1="115" x2="108" y2="115"/>
    <line x1="96" y1="80" x2="76" y2="80"/>
    <line x1="96" y1="100" x2="78" y2="100"/>
    <circle cx="122" cy="80" r="4" fill="#FFC107" stroke="none"/>
    <circle cx="118" cy="100" r="4" fill="#FFC107" stroke="none"/>
    <circle cx="108" cy="115" r="3.5" fill="#FFC107" stroke="none"/>
    <circle cx="76" cy="80" r="4" fill="#FFC107" stroke="none"/>
    <circle cx="78" cy="100" r="4" fill="#FFC107" stroke="none"/>
    <circle cx="96" cy="60" r="4.5" fill="#FFD54F" stroke="none"/>
    <circle cx="96" cy="130" r="4.5" fill="#FFD54F" stroke="none"/>
  </g>
  <!-- Subtle leaf border -->
  <path d="M96 30 C130 30, 162 58, 162 96 C162 134, 130 162, 96 150 C96 150, 60 140, 50 110 C40 80, 62 30, 96 30 Z" fill="none" stroke="#43A047" stroke-width="2" opacity="0.3"/>
</svg>
