<svg xmlns="http://www.w3.org/2000/svg" viewBox="0 0 512 512" width="512" height="512">
  <defs>
    <linearGradient id="bg" x1="0%" y1="0%" x2="100%" y2="100%">
      <stop offset="0%" style="stop-color:#FAF9F6;stop-opacity:1" />
      <stop offset="100%" style="stop-color:#F1F3F4;stop-opacity:1" />
    </linearGradient>
    <linearGradient id="leaf" x1="0%" y1="0%" x2="100%" y2="100%">
      <stop offset="0%" style="stop-color:#2E7D32;stop-opacity:1" />
      <stop offset="100%" style="stop-color:#1B5E20;stop-opacity:1" />
    </linearGradient>
    <linearGradient id="accent" x1="0%" y1="100%" x2="100%" y2="0%">
      <stop offset="0%" style="stop-color:#FFC107;stop-opacity:1" />
      <stop offset="100%" style="stop-color:#FFD54F;stop-opacity:0.8" />
    </linearGradient>
  </defs>
  <!-- Background -->
  <rect width="512" height="512" rx="96" ry="96" fill="url(#bg)"/>
  <!-- Leaf shape -->
  <path d="M256 80 C346 80 432 154 432 256 C432 358 346 432 256 400 C256 400 160 374 134 294 C108 214 166 80 256 80 Z" fill="url(#leaf)"/>
  <!-- Stem -->
  <line x1="256" y1="400" x2="256" y2="450" stroke="#2E7D32" stroke-width="13" stroke-linecap="round"/>
  <!-- Circuit lines with amber accent -->
  <g stroke="url(#accent)" stroke-width="6.5" fill="none" opacity="0.9">
    <line x1="256" y1="160" x2="256" y2="346"/>
    <line x1="256" y1="213" x2="325" y2="213"/>
    <line x1="256" y1="266" x2="315" y2="266"/>
    <line x1="256" y1="306" x2="288" y2="306"/>
    <line x1="256" y1="213" x2="202" y2="213"/>
    <line x1="256" y1="266" x2="208" y2="266"/>
    <circle cx="325" cy="213" r="11" fill="#FFC107" stroke="none"/>
    <circle cx="315" cy="266" r="11" fill="#FFC107" stroke="none"/>
    <circle cx="288" cy="306" r="9" fill="#FFC107" stroke="none"/>
    <circle cx="202" cy="213" r="11" fill="#FFC107" stroke="none"/>
    <circle cx="208" cy="266" r="11" fill="#FFC107" stroke="none"/>
    <circle cx="256" cy="160" r="12" fill="#FFD54F" stroke="none"/>
    <circle cx="256" cy="346" r="12" fill="#FFD54F" stroke="none"/>
  </g>
  <!-- Subtle leaf border -->
  <path d="M256 80 C346 80 432 154 432 256 C432 358 346 432 256 400 C256 400 160 374 134 294 C108 214 166 80 256 80 Z" fill="none" stroke="#43A047" stroke-width="5" opacity="0.3"/>
</svg>
